<svg xmlns="http://www.w3.org/2000/svg" viewBox="0 0 507.15 85.11"><defs><style>.cls-1{fill:#231f20;}.cls-2{fill:#ef3c24;fill-rule:evenodd;}</style></defs><g id="Layer_2" data-name="Layer 2"><g id="Layer_1-2" data-name="Layer 1"><path class="cls-1" d="M38.78,31.15V0h7.9V66.68h-7.9v-9c-2.46,5.62-9.21,10-16.67,10C9.56,67.74,0,57.38,0,44.48S9.56,21.15,22.11,21.15C29.57,21.15,36.32,25.62,38.78,31.15Zm-31,13.33c0,9.13,6.93,16.41,15.62,16.41S39,53.61,39,44.48s-6.93-16.4-15.61-16.4S7.81,35.27,7.81,44.48Z"/><path class="cls-1" d="M78.61,67.74a23.3,23.3,0,0,1-.26-46.59c14,0,22.64,11.4,21.94,25.18H62.73c.88,8.68,7.55,14.74,16,14.74,6.58,0,11.15-3,13.43-8.25h7.72C96.87,62.12,89,67.74,78.61,67.74ZM63.09,40.45H92.57A13.92,13.92,0,0,0,78.35,27.9,15.55,15.55,0,0,0,63.09,40.45Z"/><path class="cls-1" d="M116.78,0V66.68h-7.89V0Z"/><path class="cls-1" d="M137.75,8.25a4.86,4.86,0,0,1-5,4.91h-.09a4.87,4.87,0,0,1-5-4.91,4.88,4.88,0,0,1,5-4.92h.09A4.87,4.87,0,0,1,137.75,8.25Zm-1.05,14V66.68h-7.9V22.2Z"/><path class="cls-1" d="M181.53,22.2h8.34L166.18,68.88,142.49,22.2h8.68l15.18,32.11Z"/><path class="cls-1" d="M213.47,67.74a23.3,23.3,0,0,1-.26-46.59c14,0,22.64,11.4,21.93,25.18H197.59c.88,8.68,7.55,14.74,16,14.74,6.58,0,11.14-3,13.42-8.25h7.73C231.72,62.12,223.83,67.74,213.47,67.74ZM197.94,40.45h29.48A13.91,13.91,0,0,0,213.21,27.9,15.56,15.56,0,0,0,197.94,40.45Z"/><path class="cls-1" d="M266.73,29.48c-7.72-1.23-15.44,2.46-15.44,14.13V66.68h-7.9V22.2h7.9v8.07a14.82,14.82,0,0,1,15.44-8.69Z"/><path class="cls-1" d="M294,67.74a23.52,23.52,0,1,1-.09-47c13.86,0,22.55,10.53,22.55,23.86,0,.88,0,1.84-.09,2.81H281.21c1.23,6.76,6.49,11,12.9,11,5.26,0,8.86-2,10.79-6H316C313.06,62.3,304.55,67.74,294,67.74ZM281.56,39.83h23.78a11.12,11.12,0,0,0-11.41-9.65A12.64,12.64,0,0,0,281.56,39.83Z"/><path class="cls-1" d="M320.25,44.22c0-13.25,9.48-23.51,21.85-23.51,6.67,0,12.28,3.42,14.74,7.37V21.76h11.58V66.68H356.84V60.37c-2.46,3.94-8.07,7.37-14.74,7.37C329.73,67.74,320.25,57.56,320.25,44.22Zm36.85,0c0-7.72-5.52-13.51-12.72-13.51s-12.63,5.79-12.63,13.51,5.52,13.6,12.63,13.6S357.1,51.94,357.1,44.22Z"/><path class="cls-1" d="M373.07,56.07l9.56-3.78c1.58,4.13,4.39,6.93,8.69,6.93,3.51,0,5.88-2.19,5.88-5.08,0-8.69-21.32-3.43-21.32-19.13,0-7.9,6.58-14.3,15.79-14.3,7.37,0,12.55,3.51,15.18,9.47l-9.12,3.69a6,6,0,0,0-5.88-4.57c-3,0-5.36,1.94-5.36,4.92,0,7.81,21.5,3.16,21.5,18.69,0,9.12-8.07,14.83-16.84,14.83C383,67.74,375.7,63.61,373.07,56.07Z"/><path class="cls-1" d="M426.33,60.1,407,21.76h12.46l12.89,26.5,12.9-26.5h12.28L425,85.11H413Z"/><path class="cls-2" d="M502.31,22.36a23.77,23.77,0,0,0-37.7,0,23.78,23.78,0,0,0,0,28.77l18.85,24.6,18.85-24.6A23.78,23.78,0,0,0,502.31,22.36Zm-18.85,1.42a12.39,12.39,0,1,1-12.39,12.39A12.43,12.43,0,0,1,483.46,23.78Z"/></g></g></svg>